HIERARCHY
ROOT joint_Root
{
	OFFSET 0.0 0.0 0.0
	CHANNELS 6 Xposition Yposition Zposition Zrotation Xrotation Yrotation 
	JOINT Hips
	{
		OFFSET -17.1583 93.1646 452.98
		CHANNELS 6 Xposition Yposition Zposition Zrotation Xrotation Yrotation 
		JOINT Spine
		{
			OFFSET 15.7357 0.0 0.0
			CHANNELS 6 Xposition Yposition Zposition Zrotation Xrotation Yrotation 
			JOINT Chest
			{
				OFFSET 8.98455 -0.406207 0.0
				CHANNELS 6 Xposition Yposition Zposition Zrotation Xrotation Yrotation 
				JOINT Neck
				{
					OFFSET 16.3773 0.0 0.0
					CHANNELS 6 Xposition Yposition Zposition Zrotation Xrotation Yrotation 
					JOINT Head
					{
						OFFSET 6.45672 0.0 0.0
						CHANNELS 6 Xposition Yposition Zposition Zrotation Xrotation Yrotation 
						End Site
						{
							OFFSET 0.0 0.0 0.0
						}
					}
				}
				JOINT Shoulder_L
				{
					OFFSET 12.9942 -0.242716 4.98039
					CHANNELS 6 Xposition Yposition Zposition Zrotation Xrotation Yrotation 
					JOINT UpperArm_L
					{
						OFFSET 5.34809 0.0 0.0
						CHANNELS 6 Xposition Yposition Zposition Zrotation Xrotation Yrotation 
						JOINT LowerArm_L
						{
							OFFSET 24.3286 1.87007e-05 0.0
							CHANNELS 6 Xposition Yposition Zposition Zrotation Xrotation Yrotation 
							JOINT Hand_L
							{
								OFFSET 22.2916 0.0 0.0
								CHANNELS 6 Xposition Yposition Zposition Zrotation Xrotation Yrotation 
								End Site
								{
									OFFSET 0.0 0.0 0.0
								}
							}
						}
					}
				}
				JOINT Shoulder_R
				{
					OFFSET 12.9945 -0.242716 -4.98039
					CHANNELS 6 Xposition Yposition Zposition Zrotation Xrotation Yrotation 
					JOINT UpperArm_R
					{
						OFFSET -5.34813 0.0 0.0
						CHANNELS 6 Xposition Yposition Zposition Zrotation Xrotation Yrotation 
						JOINT LowerArm_R
						{
							OFFSET -24.3289 0.000322201 0.0
							CHANNELS 6 Xposition Yposition Zposition Zrotation Xrotation Yrotation 
							JOINT Hand_R
							{
								OFFSET -22.2915 -0.000108084 0.0
								CHANNELS 6 Xposition Yposition Zposition Zrotation Xrotation Yrotation 
								End Site
								{
									OFFSET 0.0 0.0 0.0
								}
							}
						}
					}
				}
			}
		}
		JOINT UpperLeg_L
		{
			OFFSET -2.19248 -6.46944 0.0
			CHANNELS 6 Xposition Yposition Zposition Zrotation Xrotation Yrotation 
			JOINT LowerLeg_L
			{
				OFFSET 39.0811 0.0 -1.23785e-05
				CHANNELS 6 Xposition Yposition Zposition Zrotation Xrotation Yrotation 
				JOINT Foot_L
				{
					OFFSET 40.9854 0.0 -1.26872e-05
					CHANNELS 6 Xposition Yposition Zposition Zrotation Xrotation Yrotation 
					JOINT Toes_L
					{
						OFFSET 11.7543 0.0 0.0
						CHANNELS 6 Xposition Yposition Zposition Zrotation Xrotation Yrotation 
						End Site
						{
							OFFSET 0.0 0.0 0.0
						}
					}
				}
			}
		}
		JOINT UpperLeg_R
		{
			OFFSET -2.19251 6.46944 0.0
			CHANNELS 6 Xposition Yposition Zposition Zrotation Xrotation Yrotation 
			JOINT LowerLeg_R
			{
				OFFSET -39.0811 -0.00228153 -0.0401928
				CHANNELS 6 Xposition Yposition Zposition Zrotation Xrotation Yrotation 
				JOINT Foot_R
				{
					OFFSET -40.9854 0.0 0.0
					CHANNELS 6 Xposition Yposition Zposition Zrotation Xrotation Yrotation 
					JOINT Toes_R
					{
						OFFSET -11.7543 0.0 0.0
						CHANNELS 6 Xposition Yposition Zposition Zrotation Xrotation Yrotation 
						End Site
						{
							OFFSET 0.0 0.0 0.0
						}
					}
				}
			}
		}
	}
}
MOTION
Frames:	4
Frame Time:	0.0333333
0.000000 0.000000 0.000000 0.000000 0.000000 -0.000000 0.736784 93.386400 -0.657167 88.015400 0.343611 0.079239 15.735700 0.000005 -0.000001 114.835000 86.340800 -115.135000 8.984550 -0.406207 -0.000000 -1.116460 3.096390 -0.570124 16.377300 -0.000001 -0.000001 -0.980817 1.533750 0.484675 6.456720 -0.000001 -0.000000 -0.964677 0.613262 8.033910 12.994200 -0.242716 4.980390 -92.741400 8.559990 -72.167300 5.348090 -0.000007 -0.000001 -65.964300 29.390700 -9.017020 24.328600 0.000019 0.000005 9.263440 28.596900 -18.817100 22.291600 -0.000001 0.000005 -6.556660 5.124310 4.534610 12.994500 -0.242716 -4.980390 88.469100 6.129810 -75.948300 -5.348130 -0.000001 -0.000004 -72.185700 30.788700 -4.034710 -24.328900 0.000322 -0.000009 0.526298 1.808630 -16.258600 -22.291500 -0.000108 -0.000004 2.544960 5.274360 0.780101 -2.192480 -6.469440 -0.000000 -174.387000 -4.273180 -1.465260 39.081100 -0.000007 -0.000012 0.023870 -0.095550 14.026700 40.985400 -0.000006 -0.000013 -0.452614 11.648700 -68.126400 11.754300 -0.000000 0.000003 -0.000285 0.172294 -9.588390 -2.192510 6.469440 -0.000001 176.188000 8.521910 -178.058000 -39.081100 -0.002282 -0.040193 0.003351 -0.000058 7.560490 -40.985400 0.000008 0.000006 -10.407500 7.968440 -63.223600 -11.754300 -0.000006 -0.000006 -0.010717 0.276583 -5.335050
0.000000 0.000000 0.000000 0.000000 0.000000 -0.000000 0.722730 93.418300 -0.657901 88.114100 0.518892 -0.418971 15.735700 0.000005 -0.000001 118.746000 86.439600 -119.050000 8.984550 -0.406207 -0.000000 -1.514250 3.448500 -0.562525 16.377300 -0.000001 -0.000001 -1.572740 1.158960 1.235680 6.456720 -0.000001 -0.000000 -1.011130 0.116626 9.482400 12.994200 -0.242716 4.980390 -92.849200 8.746390 -71.877000 5.348090 -0.000007 -0.000001 -63.916900 27.006200 -10.799900 24.328600 0.000019 0.000005 10.308700 32.185200 -18.853900 22.291600 -0.000001 0.000005 -10.375100 5.219660 2.193290 12.994500 -0.242716 -4.980390 88.515600 6.059820 -76.208000 -5.348130 -0.000001 -0.000004 -72.531000 30.172400 -3.382600 -24.328900 0.000322 -0.000009 0.583864 2.083900 -15.682600 -22.291500 -0.000108 -0.000004 2.618430 5.273030 0.816168 -2.192480 -6.469440 -0.000000 -174.500000 -4.292690 -1.772540 39.081100 -0.000007 -0.000012 0.020708 -0.085708 13.583000 40.985400 -0.000006 -0.000013 -0.489584 11.814900 -67.975400 11.754300 -0.000000 0.000003 -0.000282 0.172241 -9.590570 -2.192510 6.469440 -0.000001 176.140000 9.134700 -178.353000 -39.081100 -0.002282 -0.040193 0.004363 -0.008081 7.190270 -40.985400 0.000008 0.000006 -10.390000 8.324020 -63.038900 -11.754300 -0.000006 -0.000006 -0.010872 0.277710 -5.288920
0.000000 0.000000 0.000000 0.000000 0.000000 -0.000000 0.715523 93.459500 -0.657888 88.303700 0.751674 -0.992009 15.735700 0.000005 -0.000001 123.123000 86.619700 -123.409000 8.984550 -0.406207 -0.000000 -2.096270 3.717890 -0.504208 16.377300 -0.000001 -0.000001 -2.067240 0.845710 1.792740 6.456720 -0.000001 -0.000000 -0.906683 -0.275712 11.099800 12.994200 -0.242716 4.980390 -92.878700 8.716960 -71.644000 5.348090 -0.000007 -0.000001 -61.892500 22.037800 -12.731100 24.328600 0.000019 0.000005 8.608470 31.715900 -16.061800 22.291600 -0.000001 0.000005 -13.056000 5.315150 -0.365661 12.994500 -0.242716 -4.980390 88.549600 6.014820 -76.416000 -5.348130 -0.000001 -0.000004 -72.791700 29.751100 -2.780280 -24.328900 0.000322 -0.000009 0.555416 2.076500 -15.004600 -22.291500 -0.000108 -0.000004 2.771110 5.268480 0.939424 -2.192480 -6.469440 -0.000000 -174.713000 -4.282210 -2.032160 39.081100 -0.000007 -0.000012 0.018267 -0.079713 12.907400 40.985400 -0.000006 -0.000013 -0.545661 11.988200 -67.785800 11.754300 -0.000000 0.000003 -0.000299 0.172507 -9.579770 -2.192510 6.469440 -0.000001 176.038000 9.383080 -178.664000 -39.081100 -0.002282 -0.040193 0.005616 -0.019256 6.727630 -40.985400 0.000008 0.000006 -10.433700 8.307210 -62.880000 -11.754300 -0.000006 -0.000006 -0.010789 0.277110 -5.313500
0.000000 0.000000 0.000000 0.000000 0.000000 -0.000000 0.651259 93.492500 -0.658960 88.448000 1.228910 -1.531330 15.735700 0.000005 -0.000001 126.358000 86.881800 -126.513000 8.984550 -0.406207 -0.000000 -2.741160 3.709900 -0.220501 16.377300 -0.000001 -0.000001 -2.527450 0.603314 2.279160 6.456720 -0.000001 -0.000000 -0.667978 -0.470635 12.658700 12.994200 -0.242716 4.980390 -92.753600 8.278330 -71.528600 5.348090 -0.000007 -0.000001 -60.865600 12.974400 -14.798400 24.328600 0.000019 0.000005 4.853860 27.888600 -10.285700 22.291600 -0.000001 0.000005 -14.270900 5.329000 -0.755358 12.994500 -0.242716 -4.980390 88.596500 5.913070 -76.622100 -5.348130 -0.000001 -0.000004 -72.784400 29.588400 -2.361540 -24.328900 0.000322 -0.000009 0.476675 1.862730 -14.385200 -22.291500 -0.000108 -0.000004 2.654460 5.267110 0.976381 -2.192480 -6.469440 -0.000000 -174.807000 -4.331320 -2.372020 39.081100 -0.000007 -0.000012 0.016676 -0.076114 12.358200 40.985400 -0.000006 -0.000013 -0.609053 12.482200 -67.598600 11.754300 -0.000000 0.000003 -0.000475 0.175269 -9.467550 -2.192510 6.469440 -0.000001 176.071000 9.503330 -178.981000 -39.081100 -0.002282 -0.040193 0.006364 -0.026954 6.390950 -40.985400 0.000008 0.000006 -10.298900 7.917620 -62.903800 -11.754300 -0.000006 -0.000006 -0.010843 0.277497 -5.297650
